<svg t="1597664691922" class="icon" viewBox="0 0 1024 1024" version="1.1" xmlns="http://www.w3.org/2000/svg" p-id="1514" width="200" height="200"><path d="M65.07 388.01c0-17.458 2.91-29.897 8.71-37.353 5.82-7.4 18.733-11.13 38.773-11.13H236.65v484.72H183.35c-14.22 0-28.26-0.148-42.19-0.472-13.894-0.293-23.423-0.475-28.606-0.475-17.422 0.657-29.716-2.254-36.826-8.73-7.11-6.436-10.656-18.73-10.656-36.843V638.135c0-7.092 1.109-12.474 3.382-16.003 2.273-3.563 6.965-6.001 14.094-7.273 2.564 0 6.091-0.947 10.638-2.874 4.51-1.965 9.056-5.057 13.567-9.24 4.545-4.18 8.42-9.71 11.656-16.474 3.201-6.766 4.837-15.06 4.837-24.735 0-14.875-4.055-26.477-12.148-34.878-8.075-8.438-16.603-13.276-25.66-14.549-7.11-1.29-12.293-3.382-15.53-6.328-3.237-2.91-4.838-7.892-4.838-15.003V388.01z m80.453-92.091V270.697c0-12.912 5.02-24.878 15.04-35.863 10.02-10.984 20.858-16.494 32.48-16.494h133.772v77.58H145.523zM935.65 506.272c-5.164 1.29-8.873 4.055-11.13 8.274-2.29 4.146-3.382 8.838-3.382 14.04 0 5.163 1.092 10.148 3.383 14.985 2.256 4.91 5.965 8.293 11.13 10.22 5.165 1.927 9.238 5.82 12.148 11.638 2.91 5.783 4.51 11.93 4.838 18.404 0.29 6.473-0.473 12.62-2.438 18.402-1.927 5.858-4.836 10.04-8.691 12.623-12.985 7.745-19.423 16.475-19.423 26.186 0 9.71 6.438 19.386 19.423 29.06 2.544 1.964 4.982 5.529 7.237 10.693 2.255 5.166 3.42 10.329 3.42 15.495 0 5.164-1.311 9.71-3.893 13.602-2.62 3.856-7.093 5.784-13.603 5.784h-52.302c-3.929 0-6-0.328-6.328-0.946-0.329-0.657 0.18-1.783 1.455-3.383 1.272-1.674 2.873-3.42 4.873-5.348 1.929-1.926 3.53-4.218 4.838-6.8 3.238-9.057 3.238-16.804 0-23.243-3.237-6.472-8.766-11.964-16.512-16.51-5.166-2.583-8.875-6.622-11.13-12.113-2.254-5.492-3.237-11.166-2.91-16.985 0.29-5.783 1.455-10.984 3.383-15.494 1.964-4.548 4.837-7.748 8.728-9.712 5.165-1.928 9.057-5.455 11.603-10.656 2.619-5.166 3.929-10.657 3.929-16.44 0-5.857-0.983-11.2-2.91-16.039-1.929-4.838-4.875-8.22-8.766-10.147-5.164-2.62-9.2-6.476-12.075-11.676-2.91-5.129-4.365-10.984-4.365-17.422 0-6.474 1.273-12.767 3.856-18.913 2.58-6.147 6.801-11.147 12.584-15.022 3.892-2.6 7.13-6.147 9.747-10.638 2.546-4.547 4.002-9.384 4.328-14.567 0.328-5.183-0.655-10.165-2.873-15.003-2.291-4.893-6.33-8.911-12.149-12.15-6.436-3.236-11.13-7.89-14.04-14.038-2.909-6.147-4.365-12.438-4.365-18.931 0-6.438 1.456-12.584 4.365-18.386 2.91-5.856 6.912-10.366 12.113-13.603 10.982-5.8 16.95-13.748 17.93-23.75 0.981-10.02 0.146-19.222-2.401-27.605-1.964-6.475-5.82-12.294-11.675-17.477-5.82-5.164-13.24-7.748-22.259-7.748H385.973v-76.597h545.823c4.51 0 8.4 1.637 11.639 4.874 3.2 3.2 5.31 7.075 6.29 11.62 0.983 4.51 0.62 9.202-0.98 14.04-1.638 4.837-4.693 8.91-9.239 12.147-3.856 3.2-7.238 7.401-10.147 12.584-2.91 5.183-4.51 10.493-4.838 16.022-0.327 5.475 0.473 10.984 2.402 16.458 1.963 5.51 5.492 9.53 10.656 12.13 7.13 3.875 12.439 9.203 16.04 15.985 3.528 6.784 5.31 13.567 5.31 20.368 0 6.783-1.782 13.076-5.31 18.896-3.601 5.8-8.584 10.02-15.057 12.62-7.13 2.565-12.259 6.292-15.495 11.13-3.238 4.855-5.02 10.166-5.348 15.985-0.327 5.838 0.982 11.475 3.892 16.986 2.91 5.474 7.603 10.165 14.04 14.038 6.474 3.91 11.166 9.057 14.075 15.531 2.911 6.439 4.22 12.93 3.893 19.367-0.364 6.476-1.964 12.476-4.874 17.95-2.875 5.513-7.238 8.568-13.095 9.205M809.625 491.74c-7.746 1.946-13.711 5.655-17.93 11.13-4.184 5.527-6.475 11.165-6.766 16.985-0.326 5.82 1.274 11.639 4.839 17.42 3.528 5.858 8.874 10.04 15.967 12.658 6.474 2.547 11.348 6.44 14.586 11.602 3.198 5.166 4.982 10.657 5.309 16.514 0.29 5.783-0.8 11.275-3.384 16.44-2.618 5.201-6.473 9.055-11.674 11.675-16.113 7.746-24.515 17.094-25.204 28.078-0.62 10.983 5.526 19.75 18.439 26.187 5.82 2.582 10.51 6.62 14.075 12.147 3.53 5.455 5.492 11.276 5.82 17.421 0.29 6.147-0.836 11.602-3.382 16.477-2.62 4.875-6.84 8.257-12.622 10.184-7.747 1.927-13.748 5.492-17.93 10.657-4.22 5.166-6.474 10.692-6.801 16.475-0.327 5.82 1.272 11.641 4.874 17.46 3.527 5.82 9.201 10.692 16.949 14.55 5.165 2.582 8.875 6.618 11.13 12.112 2.255 5.49 3.09 10.838 2.437 16.001-0.655 5.166-2.438 9.857-5.347 14.04-2.91 4.22-6.911 6.293-12.112 6.293H293.863v-484.72h512.852c5.165 0 9.201 2.13 12.148 6.293 2.91 4.2 4.51 8.911 4.839 14.076 0.29 5.182-0.837 10.31-3.383 15.494-2.62 5.183-6.84 8.747-12.622 10.693-5.82 1.928-10.511 5.147-14.075 9.676-3.565 4.51-5.639 9.547-6.293 15.02-0.655 5.51 0.655 10.839 3.893 16.004 3.236 5.183 8.728 9.056 16.476 11.62 5.783 2.618 10.475 6.493 14.076 11.657 3.528 5.147 5.455 10.51 5.783 15.985 0.363 5.51-0.946 10.657-3.855 15.531-2.912 4.836-7.604 8.237-14.077 10.165m-233.65 64.96c-3.237 0-6.62-0.326-10.147-0.983-3.602-0.618-4.365-2.544-2.436-5.783 0.653-1.309 3.673-5.82 9.2-13.603 5.493-7.746 11.64-16.003 18.405-24.695 6.8-8.766 13.093-16.985 18.912-24.733 5.82-7.784 9.383-12.621 10.657-14.566 3.236-5.147 1.309-11.275-5.82-18.403-1.273-1.292-3.856-3.238-7.748-5.802-3.856-2.6-7.456-4.546-10.657-5.856-5.164-1.928-8.874-2.237-11.165-0.963-2.218 1.309-4.983 4.22-8.22 8.747-1.309 1.946-4.509 6.602-9.674 14.04-5.2 7.455-10.693 15.349-16.513 23.767-5.82 8.384-11.129 15.986-15.966 22.75-4.875 6.838-7.603 10.84-8.293 12.148-1.236 2.582-3.674 3.529-7.238 2.91-3.565-0.619-5.965-2.292-7.274-4.838-0.636-1.31-3.546-5.019-8.71-11.184-5.184-6.11-10.693-13.075-16.496-20.823-5.82-7.747-11.475-15.04-16.949-21.823-5.51-6.782-9.237-11.475-11.183-14.038-5.801-10.985-11.948-14.567-18.386-10.694-4.547 2.619-8.566 5.365-12.149 8.274-3.546 2.91-6.929 5.329-10.166 7.257-6.492 4.51-7.42 10.366-2.91 17.44 10.985 12.965 20.678 24.878 29.098 35.899 7.111 9.002 13.875 17.767 20.368 26.132 6.438 8.44 10.31 13.276 11.62 14.587 1.292 2.544 0 3.854-3.873 3.854h-11.656c-3.2 0-7.893 0.147-14.04 0.51-6.147 0.327-11.821 0.147-16.985-0.51-5.183 0-9.348 1.309-12.584 3.892-3.255 2.546-4.22 5.82-2.91 9.676 0.636 2.618 0.963 6.473 0.963 11.674v11.603c0 3.237 0.964 5.018 2.91 5.31 1.928 0.362 4.2 0.51 6.783 0.51h56.23c7.747 0 11.62 1.636 11.62 4.837v18.44c0 3.237-0.637 4.837-1.946 4.837h-64.942c-3.873-0.653-6.456 0.327-7.747 2.911-1.31 2.583-2.273 5.491-2.91 8.728-0.636 3.2-0.636 6.291 0 9.202 0.637 2.91 0.964 5.347 0.964 7.274 0 8.402 4.22 12.585 12.602 12.585h58.176c3.238 0 5.165 0.472 5.801 1.49 0.673 0.946 0.963 3.055 0.963 6.293 0.673 3.2 0.819 9.056 0.49 17.42-0.307 8.439-0.49 13.895-0.49 16.515 0 7.128 4.218 10.657 12.64 10.657H537.2c5.202 0 7.748-1.602 7.748-4.839V675.961c0-6.472 2.91-9.745 8.728-9.745h8.73c4.51 0 9.565-0.147 15.022-0.474 5.527-0.29 10.837-0.472 16.002-0.472h12.62c9.021 0 13.532-3.201 13.532-9.676v-21.348c0-5.82-3.201-8.729-9.675-8.729h-56.23c-6.438 1.308-9.675 0-9.675-3.855 0-1.93-0.146-4.366-0.51-7.275a73.788 73.788 0 0 1-0.472-8.22c0-2.62 1.128-4.546 3.384-5.856 2.29-1.274 4.692-1.927 7.273-1.927h57.212c6.474 0 9.675-2.255 9.675-6.803v-23.276c0-2.546-1.128-5.13-3.384-7.747-2.29-2.546-4.982-3.856-8.255-3.856h-32.95z"  p-id="1515"></path></svg>