<svg t="1600861329501" class="icon" viewBox="0 0 1024 1024" version="1.1" xmlns="http://www.w3.org/2000/svg" p-id="1199" width="200" height="200"><path d="M342.72 577.408l-37.44 37.312A214.784 214.784 0 0 0 19.968 899.84l111.04-110.72 103.872 104-110.72 110.784a214.784 214.784 0 0 0 285.248-285.056l37.184-37.312-103.872-104.192z m338.752-130.944l37.248-37.248a214.784 214.784 0 0 0 285.312-285.184l-110.912 110.72-104-103.872 110.848-110.72a214.72 214.72 0 0 0-285.376 285.056l-37.12 37.248 104 104z m125.12 313.024L588.032 540.096l45.76-45.824L172.352 32.384A98.56 98.56 0 0 0 33.152 171.776l461.312 462.08 45.824-45.76 218.56 219.072 17.088 71.296 142.08 142.336 101.952-102.144-142.08-142.272-71.232-16.896z" p-id="1200"></path></svg>