<svg t="1597473855232" class="icon" viewBox="0 0 1025 1024" version="1.1" xmlns="http://www.w3.org/2000/svg" p-id="4991" width="200" height="200"><path d="M119.116325 64.062561h788.770283c11.609337 0 21.020528 9.411191 21.020528 21.020528v859.839687c0 11.609337-9.411191 21.020528-21.020528 21.020528H119.116325c-11.609337 0-21.020528-9.411191-21.020528-21.020528V85.083089c0-11.609337 9.411191-21.020528 21.020528-21.020528z m154.150537 375.366569c-19.348895 0-35.034213 15.685318-35.034213 35.034213s15.685318 35.034213 35.034213 35.034213h478.467253c19.348895 0 35.034213-15.685318 35.034213-35.034213s-15.685318-35.034213-35.034213-35.034213H273.266862z m0 142.138807c-19.348895 0-35.034213 15.685318-35.034213 35.034214s15.685318 35.034213 35.034213 35.034213h478.467253c19.348895 0 35.034213-15.685318 35.034213-35.034213s-15.685318-35.034213-35.034213-35.034214H273.266862z m0 142.138808c-19.348895 0-35.034213 15.685318-35.034213 35.034213s15.685318 35.034213 35.034213 35.034213h372.363637c19.348895 0 35.034213-15.685318 35.034213-35.034213s-15.685318-35.034213-35.034213-35.034213H273.266862z m39.538612-385.376344c41.18522 0 74.572825-33.387605 74.572825-74.572825S353.990694 189.184751 312.805474 189.184751 238.232649 222.572356 238.232649 263.757576s33.387605 74.572825 74.572825 74.572825z"  p-id="4992"></path></svg>