<svg t="1597474915254" class="icon" viewBox="0 0 1024 1024" version="1.1" xmlns="http://www.w3.org/2000/svg" p-id="12868" width="200" height="200"><path d="M292.571429 109.714286V64a64.950857 64.950857 0 0 1 71.826285-63.707429l526.336 63.707429c33.938286 2.998857 59.830857 36.790857 59.830857 69.851429L950.857143 896.219429a65.097143 65.097143 0 0 1-60.123429 63.780571l-526.628571 63.707429a65.097143 65.097143 0 0 1-71.826286-63.707429V914.285714H219.428571c-80.822857 0-146.285714-55.442286-146.285714-123.757714V233.472C73.142857 165.156571 138.605714 109.714286 219.428571 109.714286h73.142858z m0 73.142857H219.428571c-40.374857 0-73.142857 26.770286-73.142857 59.830857v538.624c0 33.060571 32.768 59.830857 73.142857 59.830857h72.923429l0.146286-658.285714zM512 292.571429a73.142857 73.142857 0 0 0-73.142857 73.142857v292.571428a73.142857 73.142857 0 1 0 146.285714 0V365.714286a73.142857 73.142857 0 0 0-73.142857-73.142857z" p-id="12869"></path></svg>