<svg t="1597566196297" class="icon" viewBox="0 0 1024 1024" version="1.1" xmlns="http://www.w3.org/2000/svg" p-id="1201" width="200" height="200"><path d="M194.88 259.712v550.976H517.76v74.624H119.68V298.688l-74.048 38.4-34.88-66.176L463.552 36.224a37.952 37.952 0 0 1 34.944 0.064l429.504 224-35.072 66.112-73.92-38.592v193.536H743.68V248.512L480.896 111.488 194.88 259.712z m220.608 225.6v85.376H544.64V485.312H415.488z m-53.76-74.624H598.4c11.904 0 21.504 9.536 21.504 21.312v192c0 11.776-9.6 21.312-21.504 21.312H361.664a21.44 21.44 0 0 1-21.504-21.312v-192c0-11.776 9.6-21.312 21.504-21.312z m416.384 522.368a159.744 159.744 0 0 1-80.832-46.144l-55.808 32.192-38.592-66.688 56.576-32.64a159.808 159.808 0 0 1-0.512-83.008l-56.064-32.32 38.592-66.752 54.464 31.424a159.744 159.744 0 0 1 82.176-47.552V562.56h77.056v60.608c27.712 7.488 52.416 22.208 71.936 42.048l47.616-27.52 38.592 66.752-46.912 27.072a159.68 159.68 0 0 1-0.576 93.44l47.488 27.456-38.592 66.688-48.96-28.288c-19.328 19.136-43.52 33.344-70.592 40.64v60.544h-77.056v-58.88z m38.528-73.216a82.56 82.56 0 1 0 0-165.12 82.56 82.56 0 0 0 0 165.12z" p-id="1202"></path></svg>